<svg width="47" height="47" viewBox="0 0 47 47" fill="none" xmlns="http://www.w3.org/2000/svg">
<path d="M23.5 0C10.4682 0 0 10.4682 0 23.5C0 36.5318 10.4682 47 23.5 47C36.5318 47 47 36.5318 47 23.5C47 10.4682 36.5318 0 23.5 0ZM36.3182 33.1136C36.3182 33.7545 35.8909 34.1818 35.25 34.1818H11.75C11.1091 34.1818 10.6818 33.7545 10.6818 33.1136V30.9773C10.6818 30.3364 11.1091 29.9091 11.75 29.9091H35.25C35.8909 29.9091 36.3182 30.3364 36.3182 30.9773V33.1136ZM36.3182 24.5682C36.3182 25.2091 35.8909 25.6364 35.25 25.6364H11.75C11.1091 25.6364 10.6818 25.2091 10.6818 24.5682V22.4318C10.6818 21.7909 11.1091 21.3636 11.75 21.3636H35.25C35.8909 21.3636 36.3182 21.7909 36.3182 22.4318V24.5682ZM36.3182 16.0227C36.3182 16.6636 35.8909 17.0909 35.25 17.0909H11.75C11.1091 17.0909 10.6818 16.6636 10.6818 16.0227V13.8864C10.6818 13.2455 11.1091 12.8182 11.75 12.8182H35.25C35.8909 12.8182 36.3182 13.2455 36.3182 13.8864V16.0227Z" fill="#8D1D5E"/>
</svg>
