<svg width="47" height="47" viewBox="0 0 47 47" fill="none" xmlns="http://www.w3.org/2000/svg">
<path d="M28.2 14.9545H23.5H18.8C18.4796 14.9545 18.2659 15.1682 18.2659 15.4886C18.2659 15.5954 18.2659 15.5954 18.2659 15.7023C18.5864 16.3432 19.1205 17.0909 19.7614 17.9454C20.9364 19.4409 22.325 21.2568 22.325 23.5C22.325 25.7432 20.9364 27.5591 19.7614 29.0545C19.1205 29.8023 18.5864 30.55 18.2659 31.2977C18.2659 31.4045 18.2659 31.4045 18.2659 31.5113C18.2659 31.8318 18.4796 32.0454 18.8 32.0454H23.5H28.2C28.5205 32.0454 28.7341 31.8318 28.7341 31.5113C28.7341 31.4045 28.7341 31.4045 28.7341 31.2977C28.4137 30.6568 27.8796 29.9091 27.2387 29.0545C26.0637 27.5591 24.675 25.7432 24.675 23.5C24.675 21.2568 26.0637 19.4409 27.2387 17.9454C27.8796 17.1977 28.4137 16.45 28.7341 15.7023C28.7341 15.5954 28.7341 15.5954 28.7341 15.4886C28.7341 15.1682 28.5205 14.9545 28.2 14.9545Z" fill="#21254A"/>
<path d="M23.5 0C10.4682 0 0 10.4682 0 23.5C0 36.5318 10.4682 47 23.5 47C36.5318 47 47 36.5318 47 23.5C47 10.4682 36.5318 0 23.5 0ZM34.1818 13.8864C34.1818 14.3136 33.8614 14.7409 33.4341 14.8477C33.2205 14.9545 33.1136 15.0614 33.1136 15.275C33.0068 17.4114 31.725 19.0136 30.55 20.5091C29.6955 21.5773 28.8409 22.6455 28.8409 23.5C28.8409 24.3545 29.6955 25.3159 30.55 26.4909C31.725 27.8795 33.0068 29.5886 33.1136 31.725C33.1136 31.9386 33.2205 32.1523 33.4341 32.1523C33.8614 32.2591 34.1818 32.6864 34.1818 33.1136V35.25C34.1818 35.8909 33.7545 36.3182 33.1136 36.3182H23.5H13.8864C13.2455 36.3182 12.8182 35.8909 12.8182 35.25V33.1136C12.8182 32.6864 13.1386 32.2591 13.5659 32.1523C13.7795 32.0455 13.8864 31.9386 13.8864 31.725C13.9932 29.5886 15.275 27.9864 16.45 26.4909C17.3045 25.4227 18.1591 24.3545 18.1591 23.5C18.1591 22.6455 17.3045 21.6841 16.45 20.5091C15.275 19.1205 13.9932 17.4114 13.8864 15.275C13.8864 15.0614 13.7795 14.8477 13.5659 14.8477C13.1386 14.7409 12.8182 14.3136 12.8182 13.8864V11.75C12.8182 11.1091 13.2455 10.6818 13.8864 10.6818H23.5H33.1136C33.7545 10.6818 34.1818 11.1091 34.1818 11.75V13.8864Z" fill="#21254A"/>
</svg>
