<svg width="55" height="55" viewBox="0 0 55 55" fill="none" xmlns="http://www.w3.org/2000/svg">
<path d="M16.5 44C13.475 44 11 46.475 11 49.5C11 52.525 13.475 55 16.5 55C19.525 55 22 52.525 22 49.5C22 46.475 19.525 44 16.5 44ZM0 0V5.5H5.5L15.4 26.4L11.55 33C11.275 33.825 11 34.925 11 35.75C11 38.775 13.475 41.25 16.5 41.25H49.5V35.75H17.6C17.325 35.75 17.05 35.475 17.05 35.2V34.9249L19.525 30.2499H39.875C42.075 30.2499 43.725 29.1499 44.55 27.4999L54.45 9.625C55 9.075 55 8.8 55 8.25C55 6.6 53.9 5.5 52.25 5.5H11.55L9.075 0H0ZM44 44C40.975 44 38.5 46.475 38.5 49.5C38.5 52.525 40.975 55 44 55C47.025 55 49.5 52.525 49.5 49.5C49.5 46.475 47.025 44 44 44Z" fill="url(#paint0_linear)"/>
<defs>
<linearGradient id="paint0_linear" x1="27.5" y1="0" x2="27.5" y2="55" gradientUnits="userSpaceOnUse">
<stop stop-color="#313076"/>
<stop offset="1" stop-color="#232751"/>
</linearGradient>
</defs>
</svg>
