<svg width="47" height="47" viewBox="0 0 47 47" fill="none" xmlns="http://www.w3.org/2000/svg">
<path d="M23.5 0C10.4682 0 0 10.4682 0 23.5C0 36.5318 10.4682 47 23.5 47C36.5318 47 47 36.5318 47 23.5C47 10.4682 36.5318 0 23.5 0ZM37.0659 16.1295L19.975 33.8614C19.7614 34.075 19.5477 34.1818 19.2273 34.1818C18.9068 34.1818 18.5864 34.075 18.4795 33.8614L10.1477 24.8886L9.93409 24.675C9.72046 24.4614 9.61364 24.1409 9.61364 23.9273C9.61364 23.7136 9.72046 23.3932 9.93409 23.1795L11.4295 21.6841C11.8568 21.2568 12.4977 21.2568 12.925 21.6841L13.0318 21.7909L18.9068 28.0932C19.1205 28.3068 19.4409 28.3068 19.6545 28.0932L33.9682 13.2455H34.075C34.5023 12.8182 35.1432 12.8182 35.5705 13.2455L37.0659 14.7409C37.4932 15.0614 37.4932 15.7023 37.0659 16.1295Z" fill="#21254A"/>
</svg>
