<svg width="55" height="55" viewBox="0 0 55 55" fill="none" xmlns="http://www.w3.org/2000/svg" class="completed_tasks">
	<path d="M27.5 0C12.25 0 0 12.25 0 27.5C0 42.75 12.25 55 27.5 55C42.75 55 55 42.75 55 27.5C55 12.25 42.75 0 27.5 0ZM43.375 18.875L23.375 39.625C23.125 39.875 22.875 40 22.5 40C22.125 40 21.75 39.875 21.625 39.625L11.875 29.125L11.625 28.875C11.375 28.625 11.25 28.25 11.25 28C11.25 27.75 11.375 27.375 11.625 27.125L13.375 25.375C13.875 24.875 14.625 24.875 15.125 25.375L15.25 25.5L22.125 32.875C22.375 33.125 22.75 33.125 23 32.875L39.75 15.5H39.875C40.375 15 41.125 15 41.625 15.5L43.375 17.25C43.875 17.625 43.875 18.375 43.375 18.875Z" fill="white"/>
</svg>