<svg width="55" height="55" viewBox="0 0 55 55" fill="none" xmlns="http://www.w3.org/2000/svg">
<path d="M11.0002 16.5002C13.0248 16.5002 14.7529 15.7843 16.1849 14.3519C17.6173 12.9197 18.3336 11.1911 18.3336 9.16687C18.3336 7.14284 17.6173 5.41428 16.1849 3.98181C14.7529 2.54954 13.0247 1.83326 11.0002 1.83326C8.97576 1.83326 7.24761 2.54954 5.81534 3.98181C4.38317 5.41428 3.66689 7.14243 3.66689 9.16687C3.66689 11.1915 4.38317 12.9197 5.81534 14.3519C7.24761 15.7839 8.97576 16.5002 11.0002 16.5002Z" fill="url(#paint0_linear)"/>
<path d="M19.7226 27.945C21.871 30.0928 24.4632 31.1672 27.5001 31.1672C30.5371 31.1672 33.1291 30.0928 35.2775 27.945C37.4255 25.7959 38.4999 23.2035 38.4999 20.1671C38.4999 17.1306 37.4255 14.5383 35.2775 12.3898C33.1291 10.2412 30.5371 9.16692 27.5001 9.16692C24.4632 9.16692 21.8708 10.2414 19.7226 12.3898C17.5743 14.538 16.4999 17.1303 16.4999 20.1671C16.4999 23.204 17.5743 25.7962 19.7226 27.945Z" fill="url(#paint1_linear)"/>
<path d="M44.0008 16.5002C46.0245 16.5002 47.753 15.7843 49.1852 14.3519C50.6173 12.9197 51.3332 11.1911 51.3332 9.16687C51.3332 7.14284 50.6173 5.41428 49.1852 3.98181C47.7531 2.54954 46.0245 1.83326 44.0008 1.83326C41.9757 1.83326 40.2476 2.54954 38.8153 3.98181C37.3835 5.41428 36.6673 7.14243 36.6673 9.16687C36.6673 11.1915 37.3836 12.9197 38.8153 14.3519C40.2476 15.7839 41.9757 16.5002 44.0008 16.5002Z" fill="url(#paint2_linear)"/>
<path d="M51.4475 16.5006C51.3335 16.5006 50.9181 16.7011 50.2018 17.1022C49.4863 17.5034 48.5548 17.9093 47.4092 18.3199C46.2638 18.7302 45.1269 18.9356 44.0007 18.9356C42.7206 18.9356 41.4516 18.7161 40.1907 18.2767C40.2855 18.9829 40.3336 19.6133 40.3336 20.1672C40.3336 22.8217 39.56 25.2661 38.0125 27.5005C41.1069 27.5963 43.6368 28.8183 45.6045 31.1679H49.4429C51.0086 31.1679 52.3264 30.7803 53.3957 30.007C54.4649 29.2342 54.9999 28.1021 54.9999 26.6127C55.0002 19.8709 53.8167 16.5002 51.4475 16.5006Z" fill="url(#paint3_linear)"/>
<path d="M47.1663 39.6605C46.9658 38.5432 46.7124 37.5069 46.4068 36.5523C46.1012 35.597 45.6905 34.6666 45.1756 33.7594C44.6598 32.853 44.0675 32.079 43.3991 31.439C42.7302 30.799 41.9137 30.2888 40.9495 29.9063C39.9854 29.5244 38.9203 29.3336 37.7556 29.3336C37.5644 29.3336 37.154 29.539 36.5237 29.9496C35.8933 30.3599 35.1969 30.819 34.4326 31.3244C33.6686 31.8298 32.6478 32.2885 31.3674 32.6992C30.087 33.1099 28.7981 33.3153 27.5002 33.3153C26.2017 33.3153 24.9125 33.1099 23.6329 32.6992C22.353 32.2885 21.3316 31.8298 20.5677 31.3244C19.8035 30.819 19.1067 30.3599 18.4766 29.9496C17.8462 29.539 17.4359 29.3336 17.2446 29.3336C16.0798 29.3336 15.0152 29.5244 14.0507 29.9063C13.0862 30.2888 12.2699 30.799 11.6015 31.439C10.9326 32.0783 10.3411 32.853 9.82513 33.7594C9.30971 34.6666 8.89914 35.597 8.59353 36.5523C8.28801 37.5069 8.03527 38.5432 7.8344 39.6605C7.63373 40.7778 7.50019 41.8182 7.43336 42.783C7.36644 43.7475 7.33313 44.7361 7.33313 45.7482C7.33313 48.0395 8.02995 49.8493 9.42399 51.1761C10.8185 52.5028 12.6711 53.1669 14.9814 53.1669H40.0182C42.3287 53.1669 44.1811 52.5028 45.5759 51.1761C46.97 49.8493 47.667 48.0395 47.667 45.7482C47.667 44.7361 47.6334 43.7478 47.5675 42.783C47.4996 41.8182 47.3661 40.7777 47.1663 39.6605Z" fill="url(#paint4_linear)"/>
<path d="M16.9868 27.5004C15.4399 25.266 14.6666 22.8216 14.6669 20.1671C14.6669 19.6133 14.7148 18.9833 14.8101 18.2766C13.5495 18.7158 12.2796 18.9355 11 18.9355C9.87327 18.9355 8.73729 18.7302 7.59127 18.3199C6.44576 17.9092 5.51446 17.5033 4.79857 17.1021C4.08239 16.7011 3.66671 16.5005 3.55223 16.5005C1.18404 16.5006 0 19.8713 0 26.6126C0 28.102 0.53478 29.2341 1.60404 30.0069C2.6736 30.7802 3.99139 31.1671 5.5569 31.1671H9.39568C11.3629 28.8182 13.8929 27.5961 16.9868 27.5004Z" fill="url(#paint5_linear)"/>
<defs>
<linearGradient id="paint0_linear" x1="11.0002" y1="1.83326" x2="11.0002" y2="16.5002" gradientUnits="userSpaceOnUse">
<stop stop-color="#313076"/>
<stop offset="1" stop-color="#232751"/>
</linearGradient>
<linearGradient id="paint1_linear" x1="27.4999" y1="9.16692" x2="27.4999" y2="31.1672" gradientUnits="userSpaceOnUse">
<stop stop-color="#313076"/>
<stop offset="1" stop-color="#232751"/>
</linearGradient>
<linearGradient id="paint2_linear" x1="44.0003" y1="1.83326" x2="44.0003" y2="16.5002" gradientUnits="userSpaceOnUse">
<stop stop-color="#313076"/>
<stop offset="1" stop-color="#232751"/>
</linearGradient>
<linearGradient id="paint3_linear" x1="46.5062" y1="16.5006" x2="46.5062" y2="31.1679" gradientUnits="userSpaceOnUse">
<stop stop-color="#313076"/>
<stop offset="1" stop-color="#232751"/>
</linearGradient>
<linearGradient id="paint4_linear" x1="27.5001" y1="29.3336" x2="27.5001" y2="53.1669" gradientUnits="userSpaceOnUse">
<stop stop-color="#313076"/>
<stop offset="1" stop-color="#232751"/>
</linearGradient>
<linearGradient id="paint5_linear" x1="8.49342" y1="16.5005" x2="8.49342" y2="31.1671" gradientUnits="userSpaceOnUse">
<stop stop-color="#313076"/>
<stop offset="1" stop-color="#232751"/>
</linearGradient>
</defs>
</svg>
