<svg width="55" height="55" viewBox="0 0 55 55" fill="none" xmlns="http://www.w3.org/2000/svg">
<g clip-path="url(#clip0)">
<path d="M47.7774 30.402C47.7774 29.5729 48.0538 28.7437 48.0538 27.6382C48.0538 26.5327 48.0538 25.7035 47.7774 24.8744L53.5814 20.1759C54.1342 19.6231 54.1342 19.0704 53.8578 18.5176L48.3302 8.84422C48.0538 8.56784 47.5012 8.29146 46.6719 8.56784L39.7624 11.3317C38.3805 10.2261 36.7222 9.39699 35.0639 8.56784L33.9584 1.38191C34.2347 0.552764 33.4055 0 32.8528 0H21.7976C21.2447 0 20.4157 0.552764 20.4157 1.10553L19.3102 8.56784C17.6519 9.1206 16.27 10.2261 14.6117 11.3317L7.97852 8.56784C7.14937 8.29146 6.59661 8.56784 6.04374 9.1206L0.51611 18.794C0.239729 19.0704 0.51611 19.8995 1.06887 20.4523L6.87288 24.8744C6.87288 25.7035 6.5965 26.5327 6.5965 27.6382C6.5965 28.7437 6.5965 29.5729 6.87288 30.402L1.06887 35.1005C0.51611 35.6534 0.51611 36.206 0.792491 36.7589L6.32012 46.4323C6.5965 46.7087 7.14915 46.985 7.97841 46.7086L14.8879 43.9448C16.2698 45.0504 17.9281 45.8795 19.5864 46.7086L20.6919 53.8946C20.6919 54.4473 21.2447 55.0001 22.0739 55.0001H33.1291C33.682 55.0001 34.511 54.4472 34.511 53.8946L35.6165 46.7086C37.2748 45.8795 38.9331 45.0504 40.315 43.9448L47.2246 46.7086C47.7774 46.985 48.6065 46.7087 48.883 46.1558L54.4106 36.4824C54.687 35.9296 54.687 35.1005 54.1341 34.8241L47.7774 30.402ZM27.3252 37.3116C22.074 37.3116 17.6519 32.8894 17.6519 27.6382C17.6519 22.3869 22.074 17.9648 27.3252 17.9648C32.5765 17.9648 36.9986 22.3869 36.9986 27.6382C36.9986 32.8894 32.5765 37.3116 27.3252 37.3116Z" fill="url(#paint0_linear)"/>
</g>
<defs>
<linearGradient id="paint0_linear" x1="27.4999" y1="0" x2="27.4999" y2="55.0001" gradientUnits="userSpaceOnUse">
<stop stop-color="#313076"/>
<stop offset="1" stop-color="#232751"/>
</linearGradient>
<clipPath id="clip0">
<rect width="55" height="55" fill="white"/>
</clipPath>
</defs>
</svg>
