<svg width="55" height="55" viewBox="0 0 55 55" fill="none" xmlns="http://www.w3.org/2000/svg" class="completed_tasks">
								<path d="M33 17.5H27.5H22C21.625 17.5 21.375 17.75 21.375 18.125C21.375 18.25 21.375 18.25 21.375 18.375C21.75 19.125 22.375 20 23.125 21C24.5 22.75 26.125 24.875 26.125 27.5C26.125 30.125 24.5 32.25 23.125 34C22.375 34.875 21.75 35.75 21.375 36.625C21.375 36.75 21.375 36.75 21.375 36.875C21.375 37.25 21.625 37.5 22 37.5H27.5H33C33.375 37.5 33.625 37.25 33.625 36.875C33.625 36.75 33.625 36.75 33.625 36.625C33.25 35.875 32.625 35 31.875 34C30.5 32.25 28.875 30.125 28.875 27.5C28.875 24.875 30.5 22.75 31.875 21C32.625 20.125 33.25 19.25 33.625 18.375C33.625 18.25 33.625 18.25 33.625 18.125C33.625 17.75 33.375 17.5 33 17.5Z" fill="white"/>
								<path d="M27.5 0C12.25 0 0 12.25 0 27.5C0 42.75 12.25 55 27.5 55C42.75 55 55 42.75 55 27.5C55 12.25 42.75 0 27.5 0ZM40 16.25C40 16.75 39.625 17.25 39.125 17.375C38.875 17.5 38.75 17.625 38.75 17.875C38.625 20.375 37.125 22.25 35.75 24C34.75 25.25 33.75 26.5 33.75 27.5C33.75 28.5 34.75 29.625 35.75 31C37.125 32.625 38.625 34.625 38.75 37.125C38.75 37.375 38.875 37.625 39.125 37.625C39.625 37.75 40 38.25 40 38.75V41.25C40 42 39.5 42.5 38.75 42.5H27.5H16.25C15.5 42.5 15 42 15 41.25V38.75C15 38.25 15.375 37.75 15.875 37.625C16.125 37.5 16.25 37.375 16.25 37.125C16.375 34.625 17.875 32.75 19.25 31C20.25 29.75 21.25 28.5 21.25 27.5C21.25 26.5 20.25 25.375 19.25 24C17.875 22.375 16.375 20.375 16.25 17.875C16.25 17.625 16.125 17.375 15.875 17.375C15.375 17.25 15 16.75 15 16.25V13.75C15 13 15.5 12.5 16.25 12.5H27.5H38.75C39.5 12.5 40 13 40 13.75V16.25Z" fill="white"/>
							</svg>