<svg width="25" height="22" viewBox="0 0 25 22" fill="none" xmlns="http://www.w3.org/2000/svg">
<path d="M12.5 22C12.0849 22 11.7116 21.8446 11.4228 21.5485L3.20999 13.4758C3.15501 13.4358 3.01329 13.302 2.83207 13.112C2.66944 12.9428 2.41079 12.6328 2.05765 12.1829C1.70606 11.7361 1.387 11.27 1.10898 10.7977C0.820891 10.3086 0.563007 9.71633 0.342296 9.0372C0.115389 8.33576 0 7.64124 0 6.9721C0 4.82471 0.631157 3.10649 1.87566 1.8682C3.12171 0.627605 4.84248 0 6.99229 0C7.60795 0 8.24376 0.108446 8.88266 0.325339C9.5053 0.536079 10.0923 0.826038 10.6282 1.18445C11.1362 1.52517 11.573 1.84513 11.9393 2.14508C12.1306 2.30045 12.3172 2.46196 12.5 2.62886C12.682 2.46196 12.8702 2.30045 13.0615 2.14355C13.4278 1.84513 13.863 1.52594 14.3718 1.18445C14.9061 0.826038 15.4939 0.536848 16.1158 0.325339C16.7562 0.109985 17.392 0 18.0077 0C20.1575 0 21.8783 0.627605 23.1243 1.8682C24.3696 3.10649 25.0008 4.82471 25.0008 6.9721C25.0008 9.12795 23.9189 11.323 21.7861 13.4943L13.5672 21.5608C13.2853 21.8462 12.9135 22 12.5 22Z" fill="#21254A"/>
</svg>
